# xmcd
# 
# Track frame offsets:
#     150
#     15170
#     27680
#     43682
#     61635
#     67385
#     83182
#     92535
#     98280
#     109475
#     118230
#     135307
#     142317
#     156162
# 
# Disc length: 2217
# 
# Revision: 2
# Processed by: cddbd v1.5.2PL0 Copyright (c) Steve Scherf et al.
# Submitted via: fre:ac v1.0.31
# 
DISCID=bc08a70e
DTITLE=Wayne Henderson - Rugby Guitar
DYEAR=0
DGENRE=Jazz
TTITLE0=I Don't Get Around Much Anymore
TTITLE1=Ebenezer
TTITLE2=Carter Family Medley
TTITLE3=Gold Hill Waltz
TTITLE4=Cannonball Blues
TTITLE5=Rose Connolly
TTITLE6=Liza Jane
TTITLE7=Victory Rag
TTITLE8=Col. Sanders Enters Heaven
TTITLE9=Mockingbird Hill
TTITLE10=Snowflake Reel
TTITLE11=Little Rosewood Casket
TTITLE12=Chow Time
TTITLE13=Guitar Rag
EXTD=
EXTT0=
EXTT1=
EXTT2=
EXTT3=
EXTT4=
EXTT5=
EXTT6=
EXTT7=
EXTT8=
EXTT9=
EXTT10=
EXTT11=
EXTT12=
EXTT13=
PLAYORDER=
